<svg xmlns="http://www.w3.org/2000/svg" xmlns:xlink="http://www.w3.org/1999/xlink" width="500" zoomAndPan="magnify" viewBox="0 0 375 374.999991" height="500" preserveAspectRatio="xMidYMid meet" version="1.0"><defs><g/><clipPath id="2f6c1adccb"><path d="M 160 113.253906 L 215 113.253906 L 215 213 L 160 213 Z M 160 113.253906 " clip-rule="nonzero"/></clipPath><clipPath id="e35b6e5caf"><path d="M 259 146 L 262.5 146 L 262.5 164 L 259 164 Z M 259 146 " clip-rule="nonzero"/></clipPath><clipPath id="e40676ddfb"><path d="M 112.5 146 L 116 146 L 116 164 L 112.5 164 Z M 112.5 146 " clip-rule="nonzero"/></clipPath><clipPath id="6b2449b513"><rect x="0" width="136" y="0" height="32"/></clipPath></defs><rect x="-37.5" width="450" fill="#ffffff" y="-37.499999" height="449.999989" fill-opacity="1"/><rect x="-37.5" width="450" fill="#ffffff" y="-37.499999" height="449.999989" fill-opacity="1"/><g clip-path="url(#2f6c1adccb)"><path fill="#2d2a2a" d="M 211.738281 144.453125 C 210.398438 144.453125 209.3125 145.539062 209.3125 146.878906 L 209.3125 149.300781 L 207 149.300781 L 207 146.59375 C 207 145.863281 206.605469 145.226562 206.015625 144.878906 L 206.015625 131.765625 C 206.015625 121.554688 197.710938 113.25 187.5 113.25 C 177.289062 113.25 168.984375 121.554688 168.984375 131.765625 L 168.984375 144.875 C 168.394531 145.222656 168 145.859375 168 146.59375 L 168 149.296875 L 165.6875 149.296875 L 165.6875 146.875 C 165.6875 145.535156 164.601562 144.449219 163.261719 144.449219 C 161.917969 144.449219 160.835938 145.539062 160.835938 146.875 L 160.835938 167.324219 C 160.835938 180.566406 170.390625 191.734375 183.027344 193.902344 L 183.027344 203.070312 L 175.578125 203.070312 C 171.394531 203.070312 168 206.464844 168 210.648438 C 168 211.332031 168.378906 211.925781 168.941406 212.230469 C 169.195312 212.367188 169.488281 212.445312 169.796875 212.445312 L 205.195312 212.445312 C 205.507812 212.445312 205.796875 212.367188 206.054688 212.230469 C 206.613281 211.925781 206.992188 211.332031 206.992188 210.648438 C 206.992188 210.589844 206.992188 210.523438 206.988281 210.464844 C 206.984375 210.410156 206.984375 210.351562 206.984375 210.292969 C 206.800781 206.273438 203.484375 203.070312 199.414062 203.070312 L 191.964844 203.070312 L 191.964844 193.90625 C 204.546875 191.769531 214.160156 180.800781 214.160156 167.621094 L 214.160156 146.878906 C 214.164062 145.539062 213.078125 144.453125 211.738281 144.453125 Z M 209.308594 167.34375 C 209.308594 179.351562 199.71875 189.316406 187.710938 189.433594 C 175.589844 189.546875 165.6875 179.71875 165.6875 167.621094 L 165.6875 151.058594 L 168 151.058594 L 168 153.765625 C 168 154.496094 168.394531 155.136719 168.984375 155.484375 L 168.984375 168.300781 C 168.984375 178.527344 177.273438 186.816406 187.5 186.816406 C 197.726562 186.816406 206.015625 178.527344 206.015625 168.300781 L 206.015625 155.484375 C 206.605469 155.136719 207 154.496094 207 153.765625 L 207 151.058594 L 209.3125 151.058594 L 209.3125 167.34375 Z M 209.308594 167.34375 " fill-opacity="1" fill-rule="nonzero"/></g><path fill="#2d2a2a" d="M 240.371094 163.269531 C 241.082031 163.269531 241.65625 162.691406 241.65625 161.980469 L 241.65625 148.265625 C 241.65625 147.554688 241.078125 146.976562 240.371094 146.976562 C 239.65625 146.976562 239.082031 147.554688 239.082031 148.265625 L 239.082031 161.980469 C 239.082031 162.691406 239.65625 163.269531 240.371094 163.269531 Z M 240.371094 163.269531 " fill-opacity="1" fill-rule="nonzero"/><path fill="#2d2a2a" d="M 224.820312 187.707031 C 225.53125 187.707031 226.105469 187.128906 226.105469 186.417969 L 226.105469 123.828125 C 226.105469 123.113281 225.527344 122.539062 224.820312 122.539062 C 224.105469 122.539062 223.53125 123.117188 223.53125 123.828125 L 223.53125 186.417969 C 223.527344 187.128906 224.105469 187.707031 224.820312 187.707031 Z M 224.820312 187.707031 " fill-opacity="1" fill-rule="nonzero"/><path fill="#2d2a2a" d="M 235.1875 171.414062 C 235.898438 171.414062 236.476562 170.835938 236.476562 170.125 L 236.476562 140.117188 C 236.476562 139.40625 235.898438 138.828125 235.1875 138.828125 C 234.472656 138.828125 233.898438 139.40625 233.898438 140.117188 L 233.898438 170.125 C 233.894531 170.835938 234.472656 171.414062 235.1875 171.414062 Z M 235.1875 171.414062 " fill-opacity="1" fill-rule="nonzero"/><path fill="#2d2a2a" d="M 230 179.5625 C 230.714844 179.5625 231.289062 178.984375 231.289062 178.273438 L 231.289062 131.972656 C 231.289062 131.257812 230.710938 130.683594 230 130.683594 C 229.289062 130.683594 228.714844 131.261719 228.714844 131.972656 L 228.714844 178.269531 C 228.714844 178.984375 229.289062 179.5625 230 179.5625 Z M 230 179.5625 " fill-opacity="1" fill-rule="nonzero"/><path fill="#2d2a2a" d="M 218.988281 179.5625 C 219.703125 179.5625 220.277344 178.984375 220.277344 178.273438 L 220.277344 131.972656 C 220.277344 131.257812 219.699219 130.683594 218.988281 130.683594 C 218.277344 130.683594 217.699219 131.261719 217.699219 131.972656 L 217.699219 178.269531 C 217.699219 178.984375 218.277344 179.5625 218.988281 179.5625 Z M 218.988281 179.5625 " fill-opacity="1" fill-rule="nonzero"/><g clip-path="url(#e35b6e5caf)"><path fill="#2d2a2a" d="M 261.105469 163.269531 C 261.820312 163.269531 262.394531 162.691406 262.394531 161.980469 L 262.394531 148.265625 C 262.394531 147.554688 261.816406 146.976562 261.105469 146.976562 C 260.394531 146.976562 259.820312 147.554688 259.820312 148.265625 L 259.820312 161.980469 C 259.820312 162.691406 260.394531 163.269531 261.105469 163.269531 Z M 261.105469 163.269531 " fill-opacity="1" fill-rule="nonzero"/></g><path fill="#2d2a2a" d="M 255.921875 171.414062 C 256.632812 171.414062 257.210938 170.835938 257.210938 170.125 L 257.210938 140.117188 C 257.210938 139.40625 256.632812 138.828125 255.921875 138.828125 C 255.207031 138.828125 254.632812 139.40625 254.632812 140.117188 L 254.632812 170.125 C 254.632812 170.835938 255.210938 171.414062 255.921875 171.414062 Z M 255.921875 171.414062 " fill-opacity="1" fill-rule="nonzero"/><path fill="#2d2a2a" d="M 245.550781 171.414062 C 246.265625 171.414062 246.839844 170.835938 246.839844 170.125 L 246.839844 140.117188 C 246.839844 139.40625 246.261719 138.828125 245.550781 138.828125 C 244.839844 138.828125 244.265625 139.40625 244.265625 140.117188 L 244.265625 170.125 C 244.265625 170.835938 244.84375 171.414062 245.550781 171.414062 Z M 245.550781 171.414062 " fill-opacity="1" fill-rule="nonzero"/><path fill="#2d2a2a" d="M 250.738281 179.5625 C 251.453125 179.5625 252.027344 178.984375 252.027344 178.273438 L 252.027344 131.972656 C 252.027344 131.257812 251.449219 130.683594 250.738281 130.683594 C 250.023438 130.683594 249.449219 131.261719 249.449219 131.972656 L 249.449219 178.269531 C 249.449219 178.984375 250.023438 179.5625 250.738281 179.5625 Z M 250.738281 179.5625 " fill-opacity="1" fill-rule="nonzero"/><path fill="#2d2a2a" d="M 134.628906 163.269531 C 133.917969 163.269531 133.34375 162.691406 133.34375 161.980469 L 133.34375 148.265625 C 133.34375 147.554688 133.921875 146.976562 134.628906 146.976562 C 135.34375 146.976562 135.917969 147.554688 135.917969 148.265625 L 135.917969 161.980469 C 135.917969 162.691406 135.34375 163.269531 134.628906 163.269531 Z M 134.628906 163.269531 " fill-opacity="1" fill-rule="nonzero"/><path fill="#2d2a2a" d="M 150.179688 187.707031 C 149.46875 187.707031 148.894531 187.128906 148.894531 186.417969 L 148.894531 123.828125 C 148.894531 123.113281 149.472656 122.539062 150.179688 122.539062 C 150.894531 122.539062 151.46875 123.117188 151.46875 123.828125 L 151.46875 186.417969 C 151.472656 187.128906 150.894531 187.707031 150.179688 187.707031 Z M 150.179688 187.707031 " fill-opacity="1" fill-rule="nonzero"/><path fill="#2d2a2a" d="M 139.8125 171.414062 C 139.101562 171.414062 138.523438 170.835938 138.523438 170.125 L 138.523438 140.117188 C 138.523438 139.40625 139.101562 138.828125 139.8125 138.828125 C 140.527344 138.828125 141.101562 139.40625 141.101562 140.117188 L 141.101562 170.125 C 141.105469 170.835938 140.527344 171.414062 139.8125 171.414062 Z M 139.8125 171.414062 " fill-opacity="1" fill-rule="nonzero"/><path fill="#2d2a2a" d="M 145 179.5625 C 144.285156 179.5625 143.710938 178.984375 143.710938 178.273438 L 143.710938 131.972656 C 143.710938 131.257812 144.289062 130.683594 145 130.683594 C 145.710938 130.683594 146.285156 131.261719 146.285156 131.972656 L 146.285156 178.269531 C 146.285156 178.984375 145.710938 179.5625 145 179.5625 Z M 145 179.5625 " fill-opacity="1" fill-rule="nonzero"/><path fill="#2d2a2a" d="M 156.011719 179.5625 C 155.296875 179.5625 154.722656 178.984375 154.722656 178.273438 L 154.722656 131.972656 C 154.722656 131.257812 155.300781 130.683594 156.011719 130.683594 C 156.722656 130.683594 157.300781 131.261719 157.300781 131.972656 L 157.300781 178.269531 C 157.300781 178.984375 156.722656 179.5625 156.011719 179.5625 Z M 156.011719 179.5625 " fill-opacity="1" fill-rule="nonzero"/><g clip-path="url(#e40676ddfb)"><path fill="#2d2a2a" d="M 113.894531 163.269531 C 113.179688 163.269531 112.605469 162.691406 112.605469 161.980469 L 112.605469 148.265625 C 112.605469 147.554688 113.183594 146.976562 113.894531 146.976562 C 114.605469 146.976562 115.179688 147.554688 115.179688 148.265625 L 115.179688 161.980469 C 115.179688 162.691406 114.605469 163.269531 113.894531 163.269531 Z M 113.894531 163.269531 " fill-opacity="1" fill-rule="nonzero"/></g><path fill="#2d2a2a" d="M 119.078125 171.414062 C 118.367188 171.414062 117.789062 170.835938 117.789062 170.125 L 117.789062 140.117188 C 117.789062 139.40625 118.367188 138.828125 119.078125 138.828125 C 119.792969 138.828125 120.367188 139.40625 120.367188 140.117188 L 120.367188 170.125 C 120.367188 170.835938 119.789062 171.414062 119.078125 171.414062 Z M 119.078125 171.414062 " fill-opacity="1" fill-rule="nonzero"/><path fill="#2d2a2a" d="M 129.449219 171.414062 C 128.734375 171.414062 128.160156 170.835938 128.160156 170.125 L 128.160156 140.117188 C 128.160156 139.40625 128.738281 138.828125 129.449219 138.828125 C 130.160156 138.828125 130.734375 139.40625 130.734375 140.117188 L 130.734375 170.125 C 130.734375 170.835938 130.15625 171.414062 129.449219 171.414062 Z M 129.449219 171.414062 " fill-opacity="1" fill-rule="nonzero"/><path fill="#2d2a2a" d="M 124.261719 179.5625 C 123.546875 179.5625 122.972656 178.984375 122.972656 178.273438 L 122.972656 131.972656 C 122.972656 131.257812 123.550781 130.683594 124.261719 130.683594 C 124.976562 130.683594 125.550781 131.261719 125.550781 131.972656 L 125.550781 178.269531 C 125.550781 178.984375 124.976562 179.5625 124.261719 179.5625 Z M 124.261719 179.5625 " fill-opacity="1" fill-rule="nonzero"/><g transform="matrix(1, 0, 0, 1, 121, 216)"><g clip-path="url(#6b2449b513)"><g fill="#231f20" fill-opacity="1"><g transform="translate(1.047739, 24.746298)"><g><path d="M 11.40625 -4.421875 C 11.40625 -2.984375 10.882812 -1.847656 9.84375 -1.015625 C 8.8125 -0.191406 7.375 0.21875 5.53125 0.21875 C 3.832031 0.21875 2.328125 -0.0976562 1.015625 -0.734375 L 1.015625 -3.875 C 2.097656 -3.394531 3.007812 -3.054688 3.75 -2.859375 C 4.488281 -2.660156 5.171875 -2.5625 5.796875 -2.5625 C 6.535156 -2.5625 7.101562 -2.703125 7.5 -2.984375 C 7.894531 -3.273438 8.09375 -3.695312 8.09375 -4.25 C 8.09375 -4.5625 8.003906 -4.835938 7.828125 -5.078125 C 7.648438 -5.328125 7.390625 -5.5625 7.046875 -5.78125 C 6.710938 -6.007812 6.03125 -6.375 5 -6.875 C 4.019531 -7.332031 3.285156 -7.769531 2.796875 -8.1875 C 2.316406 -8.601562 1.929688 -9.09375 1.640625 -9.65625 C 1.347656 -10.21875 1.203125 -10.867188 1.203125 -11.609375 C 1.203125 -13.023438 1.679688 -14.132812 2.640625 -14.9375 C 3.597656 -15.738281 4.914062 -16.140625 6.59375 -16.140625 C 7.425781 -16.140625 8.21875 -16.039062 8.96875 -15.84375 C 9.71875 -15.65625 10.503906 -15.382812 11.328125 -15.03125 L 10.234375 -12.40625 C 9.378906 -12.75 8.675781 -12.988281 8.125 -13.125 C 7.570312 -13.269531 7.023438 -13.34375 6.484375 -13.34375 C 5.847656 -13.34375 5.359375 -13.191406 5.015625 -12.890625 C 4.671875 -12.585938 4.5 -12.195312 4.5 -11.71875 C 4.5 -11.425781 4.566406 -11.164062 4.703125 -10.9375 C 4.847656 -10.71875 5.070312 -10.503906 5.375 -10.296875 C 5.675781 -10.097656 6.390625 -9.726562 7.515625 -9.1875 C 9.003906 -8.476562 10.023438 -7.765625 10.578125 -7.046875 C 11.128906 -6.335938 11.40625 -5.460938 11.40625 -4.421875 Z M 11.40625 -4.421875 "/></g></g></g><g fill="#231f20" fill-opacity="1"><g transform="translate(16.225356, 24.746298)"><g><path d="M 5.375 -8.421875 L 6.484375 -8.421875 C 7.523438 -8.421875 8.300781 -8.625 8.8125 -9.03125 C 9.332031 -9.445312 9.59375 -10.046875 9.59375 -10.828125 C 9.59375 -11.617188 9.375 -12.203125 8.9375 -12.578125 C 8.507812 -12.960938 7.832031 -13.15625 6.90625 -13.15625 L 5.375 -13.15625 Z M 13 -10.953125 C 13 -9.242188 12.460938 -7.929688 11.390625 -7.015625 C 10.316406 -6.109375 8.796875 -5.65625 6.828125 -5.65625 L 5.375 -5.65625 L 5.375 0 L 2 0 L 2 -15.921875 L 7.09375 -15.921875 C 9.019531 -15.921875 10.484375 -15.503906 11.484375 -14.671875 C 12.492188 -13.835938 13 -12.597656 13 -10.953125 Z M 13 -10.953125 "/></g></g></g><g fill="#231f20" fill-opacity="1"><g transform="translate(33.122894, 24.746298)"><g><path d="M 11.171875 0 L 2 0 L 2 -15.921875 L 11.171875 -15.921875 L 11.171875 -13.15625 L 5.375 -13.15625 L 5.375 -9.65625 L 10.765625 -9.65625 L 10.765625 -6.890625 L 5.375 -6.890625 L 5.375 -2.78125 L 11.171875 -2.78125 Z M 11.171875 0 "/></g></g></g><g fill="#231f20" fill-opacity="1"><g transform="translate(48.507343, 24.746298)"><g><path d="M 11.75 0 L 10.59375 -3.78125 L 4.796875 -3.78125 L 3.640625 0 L 0 0 L 5.625 -15.984375 L 9.75 -15.984375 L 15.390625 0 Z M 9.78125 -6.625 C 8.71875 -10.050781 8.117188 -11.988281 7.984375 -12.4375 C 7.847656 -12.894531 7.753906 -13.253906 7.703125 -13.515625 C 7.460938 -12.585938 6.773438 -10.289062 5.640625 -6.625 Z M 9.78125 -6.625 "/></g></g></g><g fill="#231f20" fill-opacity="1"><g transform="translate(66.787355, 24.746298)"><g><path d="M 14.8125 0 L 10.96875 0 L 6.796875 -6.703125 L 5.375 -5.6875 L 5.375 0 L 2 0 L 2 -15.921875 L 5.375 -15.921875 L 5.375 -8.640625 L 6.703125 -10.5 L 11.015625 -15.921875 L 14.765625 -15.921875 L 9.203125 -8.875 Z M 14.8125 0 "/></g></g></g><g fill="#231f20" fill-opacity="1"><g transform="translate(84.490426, 24.746298)"><g><path d="M 2 0 L 2 -15.921875 L 5.375 -15.921875 L 5.375 0 Z M 2 0 "/></g></g></g><g fill="#231f20" fill-opacity="1"><g transform="translate(94.769533, 24.746298)"><g><path d="M 16.125 0 L 11.828125 0 L 4.90625 -12.046875 L 4.8125 -12.046875 C 4.945312 -9.910156 5.015625 -8.390625 5.015625 -7.484375 L 5.015625 0 L 2 0 L 2 -15.921875 L 6.265625 -15.921875 L 13.171875 -4 L 13.25 -4 C 13.144531 -6.0625 13.09375 -7.523438 13.09375 -8.390625 L 13.09375 -15.921875 L 16.125 -15.921875 Z M 16.125 0 "/></g></g></g><g fill="#231f20" fill-opacity="1"><g transform="translate(115.792712, 24.746298)"><g><path d="M 8.046875 -8.9375 L 14.359375 -8.9375 L 14.359375 -0.6875 C 13.335938 -0.351562 12.375 -0.117188 11.46875 0.015625 C 10.5625 0.148438 9.640625 0.21875 8.703125 0.21875 C 6.296875 0.21875 4.457031 -0.484375 3.1875 -1.890625 C 1.925781 -3.304688 1.296875 -5.335938 1.296875 -7.984375 C 1.296875 -10.546875 2.03125 -12.546875 3.5 -13.984375 C 4.96875 -15.421875 7.003906 -16.140625 9.609375 -16.140625 C 11.242188 -16.140625 12.820312 -15.816406 14.34375 -15.171875 L 13.21875 -12.46875 C 12.050781 -13.050781 10.84375 -13.34375 9.59375 -13.34375 C 8.132812 -13.34375 6.960938 -12.847656 6.078125 -11.859375 C 5.203125 -10.878906 4.765625 -9.566406 4.765625 -7.921875 C 4.765625 -6.191406 5.117188 -4.867188 5.828125 -3.953125 C 6.535156 -3.046875 7.566406 -2.59375 8.921875 -2.59375 C 9.617188 -2.59375 10.332031 -2.664062 11.0625 -2.8125 L 11.0625 -6.125 L 8.046875 -6.125 Z M 8.046875 -8.9375 "/></g></g></g></g></g></svg>